<svg id="Component_1_1" data-name="Component 1 – 1" xmlns="http://www.w3.org/2000/svg" width="180.838" height="84.509" viewBox="0 0 180.838 84.509">
  <g id="Group_2946" data-name="Group 2946" transform="translate(89.842 15.099)">
    <g id="Group_2942" data-name="Group 2942" transform="translate(0 0.333)">
      <path id="Path_1871" data-name="Path 1871" d="M113.845,83.227a5.74,5.74,0,0,1,1.269,3.67,5.931,5.931,0,0,1-.917,3.286,6.118,6.118,0,0,1-2.654,2.219,9.73,9.73,0,0,1-4.1.8H97.4V69.913H107a9.974,9.974,0,0,1,4.087.768,5.83,5.83,0,0,1,2.6,2.135,5.6,5.6,0,0,1,.883,3.1,5.312,5.312,0,0,1-1.085,3.4,5.794,5.794,0,0,1-2.885,1.936A5.226,5.226,0,0,1,113.845,83.227Zm-11.777-3.7h4.27a3.91,3.91,0,0,0,2.57-.751,2.646,2.646,0,0,0,.9-2.152,2.7,2.7,0,0,0-.9-2.169,3.844,3.844,0,0,0-2.57-.768h-4.27Zm7.356,9.075a2.793,2.793,0,0,0,.951-2.269,2.919,2.919,0,0,0-1-2.351,4.03,4.03,0,0,0-2.7-.851h-4.6V89.4h4.705A3.99,3.99,0,0,0,109.424,88.6Z" transform="translate(-97.396 -69.913)" fill="#3ebfc2"/>
    </g>
    <g id="Group_2943" data-name="Group 2943" transform="translate(19.393)">
      <path id="Path_1872" data-name="Path 1872" d="M123.641,91.887a11.449,11.449,0,0,1-4.337-4.254,12.569,12.569,0,0,1,0-12.279,11.453,11.453,0,0,1,4.337-4.253,12.546,12.546,0,0,1,12.029,0,11.382,11.382,0,0,1,4.3,4.253,12.688,12.688,0,0,1,0,12.279,11.335,11.335,0,0,1-4.321,4.254,12.526,12.526,0,0,1-12.012,0ZM133.35,88.3a6.511,6.511,0,0,0,2.5-2.72,8.921,8.921,0,0,0,.9-4.1,8.821,8.821,0,0,0-.9-4.087,6.42,6.42,0,0,0-2.5-2.685,7.217,7.217,0,0,0-3.7-.934,7.31,7.31,0,0,0-3.721.934,6.391,6.391,0,0,0-2.518,2.685,8.82,8.82,0,0,0-.9,4.087,8.921,8.921,0,0,0,.9,4.1,6.48,6.48,0,0,0,2.518,2.72,7.215,7.215,0,0,0,3.721.95A7.123,7.123,0,0,0,133.35,88.3Z" transform="translate(-117.703 -69.564)" fill="#3ebfc2"/>
    </g>
    <g id="Group_2944" data-name="Group 2944" transform="translate(44.657)">
      <path id="Path_1873" data-name="Path 1873" d="M150.1,91.887a11.451,11.451,0,0,1-4.337-4.254,12.569,12.569,0,0,1,0-12.279A11.455,11.455,0,0,1,150.1,71.1a12.546,12.546,0,0,1,12.029,0,11.382,11.382,0,0,1,4.3,4.253,12.688,12.688,0,0,1,0,12.279,11.335,11.335,0,0,1-4.321,4.254,12.526,12.526,0,0,1-12.012,0Zm9.709-3.587a6.512,6.512,0,0,0,2.5-2.72,8.921,8.921,0,0,0,.9-4.1,8.821,8.821,0,0,0-.9-4.087,6.421,6.421,0,0,0-2.5-2.685,7.214,7.214,0,0,0-3.7-.934,7.31,7.31,0,0,0-3.721.934,6.391,6.391,0,0,0-2.518,2.685,8.82,8.82,0,0,0-.9,4.087,8.921,8.921,0,0,0,.9,4.1,6.481,6.481,0,0,0,2.518,2.72,7.215,7.215,0,0,0,3.721.95A7.121,7.121,0,0,0,159.806,88.3Z" transform="translate(-144.158 -69.564)" fill="#3ebfc2"/>
    </g>
    <g id="Group_2945" data-name="Group 2945" transform="translate(71.102 0.333)">
      <path id="Path_1874" data-name="Path 1874" d="M185,93.2l-8.475-10.378V93.2H171.85V69.913h4.672V80.358L185,69.913h5.638l-9.61,11.546L190.9,93.2Z" transform="translate(-171.85 -69.913)" fill="#3ebfc2"/>
    </g>
  </g>
  <g id="Group_2949" data-name="Group 2949" transform="translate(26.384 68.117)">
    <g id="Group_2948" data-name="Group 2948" transform="translate(0)">
      <g id="Group_2947" data-name="Group 2947">
        <path id="Path_1875" data-name="Path 1875" d="M108.719,125.082l18.974.7,18.973.745,37.935,1.665a.834.834,0,0,1-.02,1.667h-.015l-14.079.227-14.08.158-28.16.308-28.16.3-28.161.164.425-.091-1.916.846-.306-1.984c10.445,1.268,20.858,2.64,31.232,4.569,2.59.509,5.186,1.052,7.755,1.822a16.81,16.81,0,0,1,1.957.708,9.393,9.393,0,0,1,.967.5q.238.143.467.3a2.153,2.153,0,0,1,.6.569,1.45,1.45,0,0,1,.182,1.22,1.7,1.7,0,0,1-.562.812,2.98,2.98,0,0,1-1.238.592c-.669.157-1.343.289-2.022.382a29.8,29.8,0,0,1-8.075-.161c-2.641-.369-5.216-.925-7.782-1.38-5.133-.905-10.357-1.442-15.566-2.072-5.207-.592-10.424-1.115-15.651-1.513a254.582,254.582,0,0,0-31.445-.545,233.177,233.177,0,0,1,31.5-.347q7.877.385,15.728,1.183c5.22.549,10.456,1,15.68,1.84,2.61.421,5.178.933,7.744,1.249a28.143,28.143,0,0,0,7.621.043c.622-.095,1.234-.225,1.84-.377a1.255,1.255,0,0,0,.524-.242c.048-.037.043-.067.006.024a.342.342,0,0,0,.034.282c.1.081-.273-.2-.494-.311a7.343,7.343,0,0,0-.786-.391,15.3,15.3,0,0,0-1.754-.6c-2.475-.689-5.023-1.211-7.586-1.7-10.281-1.857-20.707-3.177-31.109-4.385a1.041,1.041,0,0,1-.3-1.984l1.912-.856a1.021,1.021,0,0,1,.4-.09h.019l28.156-.309,28.156-.173,28.156-.164,14.078-.08,14.079-.009-.036,1.667-37.9-2.28-18.948-1.227Z" transform="translate(-30.946 -125.082)" fill="#3ebfc2"/>
      </g>
    </g>
  </g>
  <g id="Group_2950" data-name="Group 2950" transform="translate(50.528 27.688)">
    <path id="Path_1876" data-name="Path 1876" d="M64.214,89.052a2.809,2.809,0,0,1-.373,3.786,3.964,3.964,0,0,1-2.619.787H56.228V82.906h4.825a3.959,3.959,0,0,1,2.558.748,2.713,2.713,0,0,1,.427,3.6,2.56,2.56,0,0,1-1.321.87A2.493,2.493,0,0,1,64.214,89.052Zm-5.376-1.81H60.55a1.516,1.516,0,0,0,.985-.283,1.015,1.015,0,0,0,.344-.833,1.035,1.035,0,0,0-.344-.839A1.484,1.484,0,0,0,60.55,85H58.839Zm2.94,3.977a1.059,1.059,0,0,0,.359-.862,1.107,1.107,0,0,0-.374-.886,1.534,1.534,0,0,0-1.03-.321H58.839v2.367h1.924A1.549,1.549,0,0,0,61.779,91.22Z" transform="translate(-56.228 -82.753)" fill="#fff"/>
    <path id="Path_1877" data-name="Path 1877" d="M69.377,85v2.169h3.5v2.015h-3.5v2.352h3.955v2.092H66.766V82.906h6.566V85Z" transform="translate(-56.702 -82.753)" fill="#fff"/>
    <path id="Path_1878" data-name="Path 1878" d="M77.174,93.343a3.431,3.431,0,0,1-1.49-1.13,3.086,3.086,0,0,1-.587-1.8h2.779a1.342,1.342,0,0,0,.413.908,1.321,1.321,0,0,0,.916.313,1.433,1.433,0,0,0,.917-.267.893.893,0,0,0,.335-.74.876.876,0,0,0-.267-.657,2.162,2.162,0,0,0-.656-.428,10.685,10.685,0,0,0-1.107-.381,12.027,12.027,0,0,1-1.7-.642,3.134,3.134,0,0,1-1.131-.946,2.643,2.643,0,0,1-.474-1.635,2.81,2.81,0,0,1,1.085-2.344,4.453,4.453,0,0,1,2.825-.847,4.5,4.5,0,0,1,2.855.847,3.037,3.037,0,0,1,1.161,2.36H80.228a1.108,1.108,0,0,0-.382-.817,1.347,1.347,0,0,0-.9-.3,1.121,1.121,0,0,0-.763.252.908.908,0,0,0-.29.726.9.9,0,0,0,.489.809,7.973,7.973,0,0,0,1.527.626,14.112,14.112,0,0,1,1.686.671,3.208,3.208,0,0,1,1.123.932,2.494,2.494,0,0,1,.473,1.573,3.086,3.086,0,0,1-.465,1.665,3.263,3.263,0,0,1-1.351,1.191,4.632,4.632,0,0,1-2.092.443A5.5,5.5,0,0,1,77.174,93.343Z" transform="translate(-57.078 -82.746)" fill="#fff"/>
    <path id="Path_1879" data-name="Path 1879" d="M92.935,82.906V85H90.094v8.628H87.483V85h-2.84V82.906Z" transform="translate(-57.507 -82.753)" fill="#fff"/>
  </g>
  <g id="Group_2958" data-name="Group 2958" transform="translate(50.564 42.761)">
    <g id="Group_2951" data-name="Group 2951" transform="translate(0 0.306)">
      <path id="Path_1880" data-name="Path 1880" d="M86.268,98.85,80.3,120.219H75.247L71.238,105l-4.2,15.215-5.021.032-5.756-21.4h4.592l3.765,16.593L68.971,98.85h4.776l4.1,16.5,3.8-16.5Z" transform="translate(-56.266 -98.85)" fill="#fff"/>
    </g>
    <g id="Group_2952" data-name="Group 2952" transform="translate(32.788 0.306)">
      <path id="Path_1881" data-name="Path 1881" d="M101.62,120.219l-4.714-8.326H94.886v8.326H90.6V98.85h8.021a9.347,9.347,0,0,1,4.224.873,6.087,6.087,0,0,1,2.618,2.357,6.636,6.636,0,0,1-.351,7.134,6.294,6.294,0,0,1-3.643,2.342l5.113,8.664Zm-6.734-11.541h3.582a3.581,3.581,0,0,0,2.6-.842,3.137,3.137,0,0,0,.857-2.343,3,3,0,0,0-.857-2.28,3.67,3.67,0,0,0-2.6-.811H94.886Z" transform="translate(-90.6 -98.85)" fill="#fff"/>
    </g>
    <g id="Group_2953" data-name="Group 2953" transform="translate(52.41 0.306)">
      <path id="Path_1882" data-name="Path 1882" d="M115.433,98.85v21.369h-4.286V98.85Z" transform="translate(-111.147 -98.85)" fill="#fff"/>
    </g>
    <g id="Group_2954" data-name="Group 2954" transform="translate(59.788 0.306)">
      <path id="Path_1883" data-name="Path 1883" d="M134.547,98.85v3.46h-5.694v17.909h-4.286V102.31h-5.695V98.85Z" transform="translate(-118.873 -98.85)" fill="#fff"/>
    </g>
    <g id="Group_2955" data-name="Group 2955" transform="translate(78.585 0.276)">
      <path id="Path_1884" data-name="Path 1884" d="M142.842,102.308v5.357h7.194v3.4h-7.194v5.663h8.113v3.489h-12.4v-21.4h12.4v3.489Z" transform="translate(-138.556 -98.819)" fill="#fff"/>
    </g>
    <g id="Group_2956" data-name="Group 2956" transform="translate(94.87 0.306)">
      <path id="Path_1885" data-name="Path 1885" d="M166.63,120.219l-4.714-8.326h-2.022v8.326h-4.286V98.85h8.022a9.347,9.347,0,0,1,4.224.873,6.087,6.087,0,0,1,2.618,2.357,6.641,6.641,0,0,1-.351,7.134,6.294,6.294,0,0,1-3.643,2.342l5.113,8.664Zm-6.735-11.541h3.583a3.581,3.581,0,0,0,2.6-.842,3.137,3.137,0,0,0,.856-2.343,3,3,0,0,0-.856-2.28,3.67,3.67,0,0,0-2.6-.811h-3.583Z" transform="translate(-155.609 -98.85)" fill="#fff"/>
    </g>
    <g id="Group_2957" data-name="Group 2957" transform="translate(113.943)">
      <path id="Path_1886" data-name="Path 1886" d="M179.484,119.653a6.6,6.6,0,0,1-2.831-2.2,5.784,5.784,0,0,1-1.072-3.4h4.592a2.964,2.964,0,0,0,.932,2.082,3.309,3.309,0,0,0,2.312.766,3.557,3.557,0,0,0,2.357-.719,2.342,2.342,0,0,0,.858-1.883,2.172,2.172,0,0,0-.582-1.56,4.083,4.083,0,0,0-1.454-.965,24.685,24.685,0,0,0-2.4-.781,25.686,25.686,0,0,1-3.383-1.209,5.918,5.918,0,0,1-2.234-1.8,5.144,5.144,0,0,1-.934-3.231,5.772,5.772,0,0,1,.948-3.306,6.039,6.039,0,0,1,2.664-2.158,9.677,9.677,0,0,1,3.917-.75,8.5,8.5,0,0,1,5.373,1.607,5.956,5.956,0,0,1,2.281,4.486h-4.714a2.452,2.452,0,0,0-.934-1.823,3.525,3.525,0,0,0-2.312-.718,2.975,2.975,0,0,0-2,.642,2.325,2.325,0,0,0-.752,1.868,1.924,1.924,0,0,0,.567,1.423,4.319,4.319,0,0,0,1.409.919,24.774,24.774,0,0,0,2.372.812,24.931,24.931,0,0,1,3.4,1.224,6.112,6.112,0,0,1,2.266,1.837,5.112,5.112,0,0,1,.948,3.214,6.038,6.038,0,0,1-.887,3.183,6.28,6.28,0,0,1-2.6,2.343,8.878,8.878,0,0,1-4.072.872A10.151,10.151,0,0,1,179.484,119.653Z" transform="translate(-175.581 -98.53)" fill="#fff"/>
    </g>
  </g>
  <path id="Path_1887" data-name="Path 1887" d="M33.777,69.254c.924-.625,1.849-1.2,2.773-1.719L20.466,53.753,3.318,87.39l5.011,4.483-2.765,5.44,5.172,3.956L8.1,106.126l8.845,1.2a25.025,25.025,0,0,1-.811-3.827l-2.846-.478,2.66-4.645a31.345,31.345,0,0,1,2.537-10.539L12.4,98.983,8.612,95.927l15.3-28.262,6.745,3.915q.911-.742,1.824-1.41l-9.47-5.788L9.537,89.709,6.8,87.114,21.5,58.885Z" transform="translate(-3.318 -53.753)" fill="#3ebfc2"/>
  <g id="Group_2960" data-name="Group 2960" transform="translate(14.165 9.566)">
    <path id="Path_1888" data-name="Path 1888" d="M25.556,117.832S23.488,86,55.394,63.77c0,0-23.708,1.477-34.2,24C21.2,87.773,12,104.077,25.556,117.832Z" transform="translate(-18.151 -63.77)" fill="#0a6688"/>
    <g id="Group_2959" data-name="Group 2959" transform="translate(8.606 0.477)">
      <path id="Path_1889" data-name="Path 1889" d="M57.275,64.269A67.579,67.579,0,0,1,52.6,80.5s-1.217.478-3.016,1.387a40.055,40.055,0,0,0-10.329,7.126l7.393,1.208,1.217.195s-1.111,2.026-3.113,5.18a134.95,134.95,0,0,1-15.282,19.863s-.008.162-.016.455c-.024.957-.056,3.3.074,6.015a38.346,38.346,0,0,0,1.3,8.95c0,.009.009.009.009.016s.008.025.008.032-1.719-1.516-2.8-5.432a26.72,26.72,0,0,1-.859-7.863v-.1c0-.032,0-1.54.244-4.029.583-5.959,2.554-17.561,9.2-28.075a71.28,71.28,0,0,1,8.618-10.848A75.537,75.537,0,0,1,57.275,64.269Z" transform="translate(-27.163 -64.269)" fill="#0a6688"/>
    </g>
  </g>
</svg>
