<svg id="Component_3_1" data-name="Component 3 – 1" xmlns="http://www.w3.org/2000/svg" width="28.279" height="36.108" viewBox="0 0 28.279 36.108">
  <g id="Group_6" data-name="Group 6">
    <path id="Path_4" data-name="Path 4" d="M562.178,533.99l3.626,2.219a1.013,1.013,0,0,0,1.4-.253l.133-.217a1.013,1.013,0,0,0-.412-1.363l-3.626-2.219a1.013,1.013,0,0,0-1.4.253l-.133.217A1.013,1.013,0,0,0,562.178,533.99Z" transform="translate(-552.212 -517.989)" fill="#fff"/>
    <path id="Path_5" data-name="Path 5" d="M339.9,597.581l8.73-4.927,3.562-10.4-4.458-2.727-8.246,7.537-.479,9.925a.778.778,0,0,0-.721.351.821.821,0,0,0,.2,1.029l5.012-8.191a.829.829,0,0,1-.057-.925.888.888,0,0,1,1.511.924.848.848,0,0,1-1.069.305l-4.975,8.132a.814.814,0,0,0,.965-.3A.765.765,0,0,0,339.9,597.581Z" transform="translate(-338.184 -563.52)" fill="#fff"/>
    <path id="Path_6" data-name="Path 6" d="M609.961,204.008l-1.662-1.017-1.565,1.54,1.431-4.12-1.7,2.013-1.7,1.923,1.87-3.481-1.768.769-2.576-1.391-6.39,13.668,4.231,2.589Z" transform="translate(-585.032 -200.243)" fill="#fff"/>
    <path id="Path_7" data-name="Path 7" d="M405.619,978.136a41.03,41.03,0,0,1-7.354,1.932l.575-1.352c.1-.224-.067-.57-.357-.465l-5.278,1.914a1.935,1.935,0,0,1,.2-.654,1.343,1.343,0,0,0,.035-.862.731.731,0,0,0-.829-.475,7.867,7.867,0,0,0-1.235.384l-5.156,1.7c-.449.148-.9.312-1.356.422a2.543,2.543,0,0,1-1.023.072c.113-.129.25-.242.358-.366a1.362,1.362,0,0,0,.354-.769c.057-.64-.535-.923-1.088-.853a11.576,11.576,0,0,0-3.842,1.309c-.361.19-.041.736.319.546a12.418,12.418,0,0,1,3.187-1.154c.266-.057.967-.247.752.268a1.7,1.7,0,0,1-.4.484,1.815,1.815,0,0,0-.419.631.316.316,0,0,0,.145.357,3.259,3.259,0,0,0,2.332-.059c.854-.27,1.7-.56,2.553-.841l2.538-.838,1.269-.419c.2-.065.4-.133.595-.2.1-.031.266-.115.339-.018s.025.265,0,.358c-.039.167-.116.32-.169.482a1.054,1.054,0,0,0,.155,1.105.311.311,0,0,0,.308.081l4.862-1.763-.514,1.208a.322.322,0,0,0,.357.465,41.034,41.034,0,0,0,7.95-2.027C406.167,978.608,406,978,405.619,978.136Z" transform="translate(-377.723 -945.294)" fill="#0a6688"/>
  </g>
</svg>
