<svg id="Component_8_1" data-name="Component 8 – 1" xmlns="http://www.w3.org/2000/svg" width="38.645" height="49.343" viewBox="0 0 38.645 49.343">
  <path id="Path_4" data-name="Path 4" d="M562.375,534.724l4.956,3.032a1.384,1.384,0,0,0,1.914-.346l.181-.3a1.384,1.384,0,0,0-.564-1.862l-4.956-3.032a1.384,1.384,0,0,0-1.914.346l-.181.3A1.384,1.384,0,0,0,562.375,534.724Z" transform="translate(-548.756 -512.858)" fill="#0a6688"/>
  <path id="Path_5" data-name="Path 5" d="M340.528,604.2l11.93-6.733,4.867-14.216-6.091-3.727-11.268,10.3-.654,13.562a1.063,1.063,0,0,0-.985.48,1.122,1.122,0,0,0,.275,1.407l6.848-11.193a1.133,1.133,0,0,1-.078-1.264,1.213,1.213,0,0,1,2.065,1.263,1.158,1.158,0,0,1-1.461.417l-6.8,11.112a1.113,1.113,0,0,0,1.319-.416A1.045,1.045,0,0,0,340.528,604.2Z" transform="translate(-338.184 -557.654)"/>
  <path id="Path_6" data-name="Path 6" d="M615.113,205.388,612.842,204l-2.139,2.1,1.955-5.631-2.322,2.751-2.317,2.628,2.556-4.757-2.416,1.05-3.52-1.9-8.732,18.678,5.782,3.538Z" transform="translate(-581.046 -200.243)"/>
  <path id="Path_7" data-name="Path 7" d="M415.205,978.144a56.078,56.078,0,0,1-10.05,2.641l.786-1.847c.13-.306-.092-.779-.488-.635l-7.213,2.616a2.642,2.642,0,0,1,.274-.893,1.835,1.835,0,0,0,.047-1.178,1,1,0,0,0-1.133-.65,10.752,10.752,0,0,0-1.687.524l-7.046,2.325c-.613.2-1.224.426-1.853.577a3.476,3.476,0,0,1-1.4.1c.154-.176.342-.331.489-.5a1.861,1.861,0,0,0,.484-1.051c.078-.875-.731-1.261-1.487-1.166a15.822,15.822,0,0,0-5.25,1.789c-.493.259-.056,1.006.437.747a16.963,16.963,0,0,1,4.355-1.577c.363-.078,1.322-.338,1.028.366a2.326,2.326,0,0,1-.545.662,2.481,2.481,0,0,0-.573.862.432.432,0,0,0,.2.488,4.454,4.454,0,0,0,3.186-.081c1.167-.369,2.326-.766,3.488-1.15l3.469-1.145,1.734-.572c.271-.089.541-.182.813-.268.131-.042.364-.157.464-.025.088.116.034.362,0,.489-.053.228-.158.437-.23.659a1.44,1.44,0,0,0,.212,1.511.425.425,0,0,0,.421.111l6.644-2.41-.7,1.651a.44.44,0,0,0,.488.635,56.078,56.078,0,0,0,10.864-2.77C415.954,978.789,415.73,977.952,415.205,978.144Z" transform="translate(-377.085 -933.263)" fill="#0a6688"/>
</svg>
